<svg width="32" height="32" viewBox="0 0 32 32" fill="none" xmlns="http://www.w3.org/2000/svg">
<path d="M16 0.311523C24.6647 0.311523 31.6885 7.33527 31.6885 16C31.6885 24.6647 24.6647 31.6885 16 31.6885H0.311523V16C0.311523 7.33527 7.33527 0.311523 16 0.311523Z" fill="url(#paint0_linear_909_1684)" stroke="url(#paint1_linear_909_1684)" stroke-width="0.622222"/>
<path d="M10.8189 8.93444C10.7346 9.01163 10.6502 9.09226 10.5658 9.1764M16.491 8.18858C16.4937 8.19001 16.4962 8.19278 16.4989 8.1942" stroke="white" stroke-opacity="0.08" stroke-width="0.459772"/>
<path d="M16.4905 8.18971C14.6101 7.20442 12.7398 7.17534 10.8185 8.93544" stroke="white" stroke-opacity="0.08" stroke-width="0.459772"/>
<path fill-rule="evenodd" clip-rule="evenodd" d="M23.8087 15.4795C24.8094 15.2328 25.7143 14.6132 26.4525 13.7177C25.3611 12.5574 23.9298 11.8663 22.3704 12.1113C23.075 11.2043 23.3695 10.0238 23.2877 8.73691C21.9648 8.65247 20.7561 8.97094 19.8404 9.71784C20.1401 8.10989 19.4505 6.64475 18.2585 5.52362C17.3563 6.26739 16.735 7.17952 16.4921 8.18755C14.6117 7.20226 12.7414 7.17318 10.8201 8.93328C10.7318 9.01416 10.6434 9.0988 10.5549 9.18731C7.16332 12.5789 6.23399 20.7865 8.73583 23.2883C11.2377 25.7901 19.4453 24.8608 22.8368 21.4692C24.8694 19.4366 24.8671 17.464 23.8087 15.4795Z" fill="white"/>
<path d="M23.5174 8.72212C23.5902 9.86762 23.374 10.946 22.8358 11.8371C24.1911 11.7851 25.4241 12.3896 26.4045 13.3411L26.6199 13.5607L26.7587 13.7078L26.6303 13.8638C25.9336 14.709 25.0843 15.3238 24.1375 15.6233C24.5965 16.5618 24.828 17.5144 24.7099 18.4842C24.581 19.5423 24.0426 20.5892 22.9995 21.6323C21.2537 23.3779 18.2968 24.4701 15.4809 24.8171C14.0688 24.9911 12.6781 24.9792 11.4765 24.7625C10.2796 24.5467 9.24557 24.1226 8.57351 23.4505C7.90145 22.7784 7.47732 21.7445 7.26149 20.5475C7.04487 19.346 7.03297 17.9552 7.20694 16.5431C7.55389 13.7272 8.6468 10.771 10.3924 9.02526C10.4832 8.93447 10.5743 8.84677 10.6651 8.76355C11.6546 7.85721 12.6474 7.39763 13.6496 7.30238C14.5627 7.21563 15.4605 7.43497 16.3455 7.85895C16.6421 6.90441 17.2607 6.04838 18.1125 5.3461L18.2686 5.21766L18.4157 5.35646C19.5179 6.39315 20.2218 7.73507 20.1296 9.22897C21.0307 8.66371 22.1307 8.43256 23.3026 8.50736L23.5042 8.51979L23.5174 8.72212Z" stroke="white" stroke-opacity="0.08" stroke-width="0.459772"/>
<defs>
<linearGradient id="paint0_linear_909_1684" x1="4.93827" y1="1.67901" x2="21.7835" y2="33.0802" gradientUnits="userSpaceOnUse">
<stop stop-color="#5356E1"/>
<stop offset="1" stop-color="#C8C9F3"/>
</linearGradient>
<linearGradient id="paint1_linear_909_1684" x1="1.81818" y1="-3.63636" x2="35.753" y2="41.679" gradientUnits="userSpaceOnUse">
<stop stop-color="#8C8FEB"/>
<stop offset="1" stop-color="#B1BAF7"/>
</linearGradient>
</defs>
</svg>
